<svg width="20" height="20" viewBox="0 0 20 20" fill="none" xmlns="http://www.w3.org/2000/svg">
<path d="M19.0964 7.41866C19.0387 7.24885 18.9326 7.09964 18.7911 6.98945C18.6496 6.87926 18.479 6.81292 18.3002 6.79861L13.0711 6.3831L10.8083 1.37409C10.7362 1.21276 10.619 1.07573 10.4708 0.979546C10.3225 0.883361 10.1496 0.832128 9.97296 0.832031C9.79626 0.831934 9.62332 0.882977 9.47499 0.978999C9.32666 1.07502 9.2093 1.21192 9.13706 1.37317L6.87424 6.3831L1.64509 6.79861C1.4694 6.81253 1.30144 6.87677 1.1613 6.98364C1.02116 7.09052 0.914781 7.23551 0.854886 7.40126C0.794991 7.56701 0.784117 7.74651 0.823564 7.91828C0.863012 8.09005 0.951111 8.24682 1.07732 8.36983L4.94163 12.1369L3.57495 18.0549C3.53345 18.234 3.54675 18.4215 3.61313 18.593C3.6795 18.7645 3.79588 18.9121 3.94717 19.0166C4.09845 19.1211 4.27766 19.1777 4.46153 19.1791C4.64541 19.1805 4.82546 19.1266 4.97832 19.0244L9.97266 15.6949L14.967 19.0244C15.1232 19.1282 15.3075 19.1816 15.495 19.1774C15.6825 19.1733 15.8642 19.1119 16.0158 19.0014C16.1673 18.8909 16.2814 18.7367 16.3426 18.5595C16.4039 18.3822 16.4094 18.1904 16.3584 18.01L14.6808 12.1397L18.8414 8.39551C19.1138 8.1497 19.2138 7.76629 19.0964 7.41866Z" fill="#F3CD03"/>
</svg>
